# xmcd CD database file
#
# Track frame offsets:
#	150
#	28154
#	58596
#	79366
#	100799
#	120712
#	143488
#	164087
#	194178
#	223907
#
# Disc length: 3309 seconds
#
# Revision: 0
# Processed by: cddbd v1.5.2PL0 Copyright (c) Steve Scherf et al.
# Submitted via: CDex 1.51
#
DISCID=9a0ceb0a
DTITLE=Oriente - algo vieho, algo nuevo
DYEAR=2007
DGENRE=Salsa
TTITLE0=Sin Palabras
TTITLE1=Ritmo de la Calle
TTITLE2=El Carretero
TTITLE3=Uno
TTITLE4=Que No Amanezca!
TTITLE5=Mi Barrio
TTITLE6=Y No Hago Mas Na
TTITLE7=Un Danzon de Mas
TTITLE8=Adoracion
TTITLE9=El Crucifijo de Piedra
EXTD=YEAR: 2007
EXTT0=
EXTT1=
EXTT2=
EXTT3=
EXTT4=
EXTT5=
EXTT6=
EXTT7=
EXTT8=
EXTT9=
PLAYORDER=
